<mxfile host="app.diagrams.net" agent="Mozilla/5.0 (Windows NT 10.0; Win64; x64) AppleWebKit/537.36 (KHTML, like Gecko) Chrome/130.0.0.0 Safari/537.36" version="24.8.3">
  <diagram name="Page-1" id="gHnF7H9avsxtM29_mW2w">
    <mxGraphModel dx="880" dy="468" grid="1" gridSize="10" guides="1" tooltips="1" connect="1" arrows="1" fold="1" page="1" pageScale="1" pageWidth="850" pageHeight="1100" background="none" math="0" shadow="0">
      <root>
        <mxCell id="0" />
        <mxCell id="1" parent="0" />
        <mxCell id="EGbaX_ooP4YwNX-xeTMy-181" value="" style="verticalLabelPosition=bottom;verticalAlign=top;html=1;shape=mxgraph.basic.rect;fillColor2=none;strokeWidth=1;size=20;indent=5;rounded=1;labelBackgroundColor=none;gradientColor=none;strokeColor=default;" parent="1" vertex="1">
          <mxGeometry x="87.5" y="320" width="710" height="760" as="geometry" />
        </mxCell>
        <mxCell id="EGbaX_ooP4YwNX-xeTMy-67" style="edgeStyle=orthogonalEdgeStyle;rounded=1;orthogonalLoop=1;jettySize=auto;html=1;exitX=1;exitY=0.5;exitDx=0;exitDy=0;labelBackgroundColor=none;fontColor=default;" parent="1" source="EGbaX_ooP4YwNX-xeTMy-1" edge="1">
          <mxGeometry relative="1" as="geometry">
            <mxPoint x="360.3333333333335" y="490" as="targetPoint" />
          </mxGeometry>
        </mxCell>
        <mxCell id="EGbaX_ooP4YwNX-xeTMy-1" value="" style="rounded=0;whiteSpace=wrap;html=1;labelBackgroundColor=none;glass=0;" parent="1" vertex="1">
          <mxGeometry x="130" y="350" width="240" height="280" as="geometry" />
        </mxCell>
        <mxCell id="EGbaX_ooP4YwNX-xeTMy-33" value="Cloud" style="ellipse;shape=cloud;whiteSpace=wrap;html=1;rounded=1;labelBackgroundColor=none;" parent="1" vertex="1">
          <mxGeometry x="390" y="580" width="120" height="80" as="geometry" />
        </mxCell>
        <mxCell id="EGbaX_ooP4YwNX-xeTMy-34" value="server&lt;br&gt;raspberry pi" style="rounded=1;whiteSpace=wrap;html=1;labelBackgroundColor=none;" parent="1" vertex="1">
          <mxGeometry x="390" y="680" width="120" height="60" as="geometry" />
        </mxCell>
        <mxCell id="EGbaX_ooP4YwNX-xeTMy-60" value="sensor (TH3)" style="rounded=1;whiteSpace=wrap;html=1;labelBackgroundColor=none;" parent="1" vertex="1">
          <mxGeometry x="300" y="590" width="60" height="30" as="geometry" />
        </mxCell>
        <mxCell id="EGbaX_ooP4YwNX-xeTMy-61" value="sensor (TH2)" style="rounded=1;whiteSpace=wrap;html=1;labelBackgroundColor=none;" parent="1" vertex="1">
          <mxGeometry x="140" y="590" width="60" height="30" as="geometry" />
        </mxCell>
        <mxCell id="EGbaX_ooP4YwNX-xeTMy-62" value="sensor (TH1)" style="rounded=1;whiteSpace=wrap;html=1;labelBackgroundColor=none;" parent="1" vertex="1">
          <mxGeometry x="300" y="360" width="60" height="30" as="geometry" />
        </mxCell>
        <mxCell id="EGbaX_ooP4YwNX-xeTMy-63" value="sensor (TH0)" style="rounded=1;whiteSpace=wrap;html=1;strokeWidth=1;fontSize=11;labelBackgroundColor=none;" parent="1" vertex="1">
          <mxGeometry x="140" y="360" width="60" height="30" as="geometry" />
        </mxCell>
        <mxCell id="62_O6QMOKlsczxU7hUuw-11" style="edgeStyle=orthogonalEdgeStyle;rounded=0;orthogonalLoop=1;jettySize=auto;html=1;exitX=1;exitY=0.5;exitDx=0;exitDy=0;entryX=0;entryY=0.75;entryDx=0;entryDy=0;" edge="1" parent="1" source="EGbaX_ooP4YwNX-xeTMy-64">
          <mxGeometry relative="1" as="geometry">
            <mxPoint x="290" y="620" as="sourcePoint" />
            <mxPoint x="390" y="705" as="targetPoint" />
            <Array as="points">
              <mxPoint x="340" y="649" />
              <mxPoint x="340" y="705" />
            </Array>
          </mxGeometry>
        </mxCell>
        <mxCell id="EGbaX_ooP4YwNX-xeTMy-64" value="data logger 0" style="rounded=1;whiteSpace=wrap;html=1;labelBackgroundColor=none;" parent="1" vertex="1">
          <mxGeometry x="210" y="630" width="80" height="40" as="geometry" />
        </mxCell>
        <mxCell id="EGbaX_ooP4YwNX-xeTMy-68" value="" style="rounded=0;whiteSpace=wrap;html=1;labelBackgroundColor=none;glass=0;" parent="1" vertex="1">
          <mxGeometry x="530" y="350" width="240" height="280" as="geometry" />
        </mxCell>
        <mxCell id="EGbaX_ooP4YwNX-xeTMy-69" value="sensor (TH3)" style="rounded=1;whiteSpace=wrap;html=1;labelBackgroundColor=none;" parent="1" vertex="1">
          <mxGeometry x="700" y="590" width="60" height="30" as="geometry" />
        </mxCell>
        <mxCell id="EGbaX_ooP4YwNX-xeTMy-70" value="sensor (TH2)" style="rounded=1;whiteSpace=wrap;html=1;labelBackgroundColor=none;" parent="1" vertex="1">
          <mxGeometry x="540" y="590" width="60" height="30" as="geometry" />
        </mxCell>
        <mxCell id="EGbaX_ooP4YwNX-xeTMy-71" value="sensor (TH1)" style="rounded=1;whiteSpace=wrap;html=1;labelBackgroundColor=none;" parent="1" vertex="1">
          <mxGeometry x="700" y="360" width="60" height="30" as="geometry" />
        </mxCell>
        <mxCell id="EGbaX_ooP4YwNX-xeTMy-72" value="sensor (TH0)" style="rounded=1;whiteSpace=wrap;html=1;strokeWidth=1;fontSize=11;labelBackgroundColor=none;" parent="1" vertex="1">
          <mxGeometry x="540" y="360" width="60" height="30" as="geometry" />
        </mxCell>
        <mxCell id="62_O6QMOKlsczxU7hUuw-13" style="edgeStyle=orthogonalEdgeStyle;rounded=0;orthogonalLoop=1;jettySize=auto;html=1;entryX=1;entryY=0.25;entryDx=0;entryDy=0;" edge="1" parent="1" source="EGbaX_ooP4YwNX-xeTMy-73" target="EGbaX_ooP4YwNX-xeTMy-34">
          <mxGeometry relative="1" as="geometry" />
        </mxCell>
        <mxCell id="EGbaX_ooP4YwNX-xeTMy-73" value="data logger 1" style="rounded=1;whiteSpace=wrap;html=1;labelBackgroundColor=none;" parent="1" vertex="1">
          <mxGeometry x="610" y="630" width="80" height="40" as="geometry" />
        </mxCell>
        <mxCell id="EGbaX_ooP4YwNX-xeTMy-86" value="" style="rounded=0;whiteSpace=wrap;html=1;labelBackgroundColor=none;glass=0;" parent="1" vertex="1">
          <mxGeometry x="130" y="790" width="240" height="280" as="geometry" />
        </mxCell>
        <mxCell id="EGbaX_ooP4YwNX-xeTMy-87" value="sensor (TH3)" style="rounded=1;whiteSpace=wrap;html=1;labelBackgroundColor=none;" parent="1" vertex="1">
          <mxGeometry x="300" y="1030" width="60" height="30" as="geometry" />
        </mxCell>
        <mxCell id="EGbaX_ooP4YwNX-xeTMy-88" value="sensor (TH2)" style="rounded=1;whiteSpace=wrap;html=1;labelBackgroundColor=none;" parent="1" vertex="1">
          <mxGeometry x="140" y="1030" width="60" height="30" as="geometry" />
        </mxCell>
        <mxCell id="EGbaX_ooP4YwNX-xeTMy-89" value="sensor (TH1)" style="rounded=1;whiteSpace=wrap;html=1;labelBackgroundColor=none;" parent="1" vertex="1">
          <mxGeometry x="300" y="800" width="60" height="30" as="geometry" />
        </mxCell>
        <mxCell id="EGbaX_ooP4YwNX-xeTMy-90" value="sensor (TH0)" style="rounded=1;whiteSpace=wrap;html=1;strokeWidth=1;fontSize=11;labelBackgroundColor=none;" parent="1" vertex="1">
          <mxGeometry x="140" y="800" width="60" height="30" as="geometry" />
        </mxCell>
        <mxCell id="EGbaX_ooP4YwNX-xeTMy-91" value="data logger 3" style="rounded=1;whiteSpace=wrap;html=1;labelBackgroundColor=none;" parent="1" vertex="1">
          <mxGeometry x="210" y="750" width="80" height="40" as="geometry" />
        </mxCell>
        <mxCell id="EGbaX_ooP4YwNX-xeTMy-92" value="" style="rounded=0;whiteSpace=wrap;html=1;labelBackgroundColor=none;glass=0;" parent="1" vertex="1">
          <mxGeometry x="530" y="790" width="240" height="280" as="geometry" />
        </mxCell>
        <mxCell id="EGbaX_ooP4YwNX-xeTMy-93" value="sensor (TH3)" style="rounded=1;whiteSpace=wrap;html=1;labelBackgroundColor=none;" parent="1" vertex="1">
          <mxGeometry x="700" y="1030" width="60" height="30" as="geometry" />
        </mxCell>
        <mxCell id="EGbaX_ooP4YwNX-xeTMy-94" value="sensor (TH2)" style="rounded=1;whiteSpace=wrap;html=1;labelBackgroundColor=none;" parent="1" vertex="1">
          <mxGeometry x="540" y="1030" width="60" height="30" as="geometry" />
        </mxCell>
        <mxCell id="EGbaX_ooP4YwNX-xeTMy-95" value="sensor (TH1)" style="rounded=1;whiteSpace=wrap;html=1;labelBackgroundColor=none;" parent="1" vertex="1">
          <mxGeometry x="700" y="800" width="60" height="30" as="geometry" />
        </mxCell>
        <mxCell id="EGbaX_ooP4YwNX-xeTMy-96" value="sensor (TH0)" style="rounded=1;whiteSpace=wrap;html=1;strokeWidth=1;fontSize=11;labelBackgroundColor=none;" parent="1" vertex="1">
          <mxGeometry x="540" y="800" width="60" height="30" as="geometry" />
        </mxCell>
        <mxCell id="EGbaX_ooP4YwNX-xeTMy-97" value="data logger 2" style="rounded=1;whiteSpace=wrap;html=1;labelBackgroundColor=none;" parent="1" vertex="1">
          <mxGeometry x="610" y="750" width="80" height="40" as="geometry" />
        </mxCell>
        <mxCell id="EGbaX_ooP4YwNX-xeTMy-98" value="UV 4" style="shape=delay;whiteSpace=wrap;html=1;rotation=0;rounded=1;labelBackgroundColor=none;" parent="1" vertex="1">
          <mxGeometry x="150" y="476.25" width="40" height="27.5" as="geometry" />
        </mxCell>
        <mxCell id="EGbaX_ooP4YwNX-xeTMy-99" value="UV 5" style="shape=delay;whiteSpace=wrap;html=1;rotation=0;rounded=1;labelBackgroundColor=none;" parent="1" vertex="1">
          <mxGeometry x="310" y="476.25" width="40" height="27.5" as="geometry" />
        </mxCell>
        <mxCell id="EGbaX_ooP4YwNX-xeTMy-100" value="UV 2" style="shape=delay;whiteSpace=wrap;html=1;rotation=0;rounded=1;labelBackgroundColor=none;" parent="1" vertex="1">
          <mxGeometry x="310" y="540" width="40" height="27.5" as="geometry" />
        </mxCell>
        <mxCell id="EGbaX_ooP4YwNX-xeTMy-101" value="UV 3" style="shape=delay;whiteSpace=wrap;html=1;rotation=0;rounded=1;labelBackgroundColor=none;" parent="1" vertex="1">
          <mxGeometry x="150" y="540" width="40" height="27.5" as="geometry" />
        </mxCell>
        <mxCell id="EGbaX_ooP4YwNX-xeTMy-102" value="UV 0" style="shape=delay;whiteSpace=wrap;html=1;rotation=0;rounded=1;labelBackgroundColor=none;" parent="1" vertex="1">
          <mxGeometry x="150" y="410" width="40" height="27.5" as="geometry" />
        </mxCell>
        <mxCell id="EGbaX_ooP4YwNX-xeTMy-103" value="UV 1" style="shape=delay;whiteSpace=wrap;html=1;rotation=0;rounded=1;labelBackgroundColor=none;" parent="1" vertex="1">
          <mxGeometry x="310" y="410" width="40" height="27.5" as="geometry" />
        </mxCell>
        <mxCell id="EGbaX_ooP4YwNX-xeTMy-138" value="" style="endArrow=classic;html=1;rounded=1;exitX=0.5;exitY=0;exitDx=0;exitDy=0;entryX=0.5;entryY=1;entryDx=0;entryDy=0;labelBackgroundColor=none;fontColor=default;" parent="1" source="EGbaX_ooP4YwNX-xeTMy-102" target="EGbaX_ooP4YwNX-xeTMy-63" edge="1">
          <mxGeometry width="50" height="50" relative="1" as="geometry">
            <mxPoint x="200" y="480" as="sourcePoint" />
            <mxPoint x="250" y="430" as="targetPoint" />
          </mxGeometry>
        </mxCell>
        <mxCell id="EGbaX_ooP4YwNX-xeTMy-139" value="" style="endArrow=classic;html=1;rounded=1;exitX=0.5;exitY=0;exitDx=0;exitDy=0;entryX=0.5;entryY=1;entryDx=0;entryDy=0;labelBackgroundColor=none;fontColor=default;" parent="1" edge="1">
          <mxGeometry width="50" height="50" relative="1" as="geometry">
            <mxPoint x="329.8" y="410" as="sourcePoint" />
            <mxPoint x="329.8" y="390" as="targetPoint" />
          </mxGeometry>
        </mxCell>
        <mxCell id="EGbaX_ooP4YwNX-xeTMy-140" value="" style="endArrow=classic;html=1;rounded=1;exitX=0.5;exitY=1;exitDx=0;exitDy=0;entryX=0.5;entryY=1;entryDx=0;entryDy=0;labelBackgroundColor=none;fontColor=default;" parent="1" source="EGbaX_ooP4YwNX-xeTMy-101" edge="1">
          <mxGeometry width="50" height="50" relative="1" as="geometry">
            <mxPoint x="169.8" y="570" as="sourcePoint" />
            <mxPoint x="169.8" y="590" as="targetPoint" />
          </mxGeometry>
        </mxCell>
        <mxCell id="EGbaX_ooP4YwNX-xeTMy-142" value="" style="endArrow=classic;html=1;rounded=1;exitX=0.493;exitY=1.017;exitDx=0;exitDy=0;entryX=0.5;entryY=1;entryDx=0;entryDy=0;exitPerimeter=0;labelBackgroundColor=none;fontColor=default;" parent="1" source="EGbaX_ooP4YwNX-xeTMy-100" edge="1">
          <mxGeometry width="50" height="50" relative="1" as="geometry">
            <mxPoint x="329.8" y="570" as="sourcePoint" />
            <mxPoint x="329.8" y="590" as="targetPoint" />
          </mxGeometry>
        </mxCell>
        <mxCell id="EGbaX_ooP4YwNX-xeTMy-144" value="" style="endArrow=classic;html=1;rounded=1;exitX=1;exitY=0.5;exitDx=0;exitDy=0;entryX=1;entryY=0.5;entryDx=0;entryDy=0;labelBackgroundColor=none;fontColor=default;" parent="1" source="EGbaX_ooP4YwNX-xeTMy-98" target="EGbaX_ooP4YwNX-xeTMy-63" edge="1">
          <mxGeometry width="50" height="50" relative="1" as="geometry">
            <mxPoint x="220" y="390" as="sourcePoint" />
            <mxPoint x="220" y="370" as="targetPoint" />
            <Array as="points">
              <mxPoint x="220" y="490" />
              <mxPoint x="220" y="375" />
            </Array>
          </mxGeometry>
        </mxCell>
        <mxCell id="EGbaX_ooP4YwNX-xeTMy-149" value="" style="endArrow=classic;html=1;rounded=1;exitX=0;exitY=0.5;exitDx=0;exitDy=0;entryX=0;entryY=0.5;entryDx=0;entryDy=0;labelBackgroundColor=none;fontColor=default;" parent="1" source="EGbaX_ooP4YwNX-xeTMy-99" target="EGbaX_ooP4YwNX-xeTMy-62" edge="1">
          <mxGeometry width="50" height="50" relative="1" as="geometry">
            <mxPoint x="240" y="485" as="sourcePoint" />
            <mxPoint x="250" y="370" as="targetPoint" />
            <Array as="points">
              <mxPoint x="270" y="490" />
              <mxPoint x="270" y="375" />
            </Array>
          </mxGeometry>
        </mxCell>
        <mxCell id="EGbaX_ooP4YwNX-xeTMy-154" value="UV 2" style="shape=delay;whiteSpace=wrap;html=1;rotation=0;rounded=1;labelBackgroundColor=none;" parent="1" vertex="1">
          <mxGeometry x="710" y="540" width="40" height="27.5" as="geometry" />
        </mxCell>
        <mxCell id="EGbaX_ooP4YwNX-xeTMy-155" value="UV 3" style="shape=delay;whiteSpace=wrap;html=1;rotation=0;rounded=1;labelBackgroundColor=none;" parent="1" vertex="1">
          <mxGeometry x="550" y="540" width="40" height="27.5" as="geometry" />
        </mxCell>
        <mxCell id="EGbaX_ooP4YwNX-xeTMy-156" value="UV 0" style="shape=delay;whiteSpace=wrap;html=1;rotation=0;rounded=1;labelBackgroundColor=none;" parent="1" vertex="1">
          <mxGeometry x="550" y="410" width="40" height="27.5" as="geometry" />
        </mxCell>
        <mxCell id="EGbaX_ooP4YwNX-xeTMy-157" value="UV 1" style="shape=delay;whiteSpace=wrap;html=1;rotation=0;rounded=1;labelBackgroundColor=none;" parent="1" vertex="1">
          <mxGeometry x="710" y="410" width="40" height="27.5" as="geometry" />
        </mxCell>
        <mxCell id="EGbaX_ooP4YwNX-xeTMy-158" value="" style="endArrow=classic;html=1;rounded=1;exitX=0.5;exitY=0;exitDx=0;exitDy=0;entryX=0.5;entryY=1;entryDx=0;entryDy=0;labelBackgroundColor=none;fontColor=default;" parent="1" source="EGbaX_ooP4YwNX-xeTMy-156" edge="1">
          <mxGeometry width="50" height="50" relative="1" as="geometry">
            <mxPoint x="600" y="480" as="sourcePoint" />
            <mxPoint x="570" y="390" as="targetPoint" />
          </mxGeometry>
        </mxCell>
        <mxCell id="EGbaX_ooP4YwNX-xeTMy-159" value="" style="endArrow=classic;html=1;rounded=1;exitX=0.5;exitY=0;exitDx=0;exitDy=0;entryX=0.5;entryY=1;entryDx=0;entryDy=0;labelBackgroundColor=none;fontColor=default;" parent="1" edge="1">
          <mxGeometry width="50" height="50" relative="1" as="geometry">
            <mxPoint x="729.8" y="410" as="sourcePoint" />
            <mxPoint x="729.8" y="390" as="targetPoint" />
          </mxGeometry>
        </mxCell>
        <mxCell id="EGbaX_ooP4YwNX-xeTMy-160" value="" style="endArrow=classic;html=1;rounded=1;exitX=0.5;exitY=1;exitDx=0;exitDy=0;entryX=0.5;entryY=1;entryDx=0;entryDy=0;labelBackgroundColor=none;fontColor=default;" parent="1" source="EGbaX_ooP4YwNX-xeTMy-155" edge="1">
          <mxGeometry width="50" height="50" relative="1" as="geometry">
            <mxPoint x="569.8" y="570" as="sourcePoint" />
            <mxPoint x="569.8" y="590" as="targetPoint" />
          </mxGeometry>
        </mxCell>
        <mxCell id="EGbaX_ooP4YwNX-xeTMy-161" value="" style="endArrow=classic;html=1;rounded=1;exitX=0.493;exitY=1.017;exitDx=0;exitDy=0;entryX=0.5;entryY=1;entryDx=0;entryDy=0;exitPerimeter=0;labelBackgroundColor=none;fontColor=default;" parent="1" source="EGbaX_ooP4YwNX-xeTMy-154" edge="1">
          <mxGeometry width="50" height="50" relative="1" as="geometry">
            <mxPoint x="729.8" y="570" as="sourcePoint" />
            <mxPoint x="729.8" y="590" as="targetPoint" />
          </mxGeometry>
        </mxCell>
        <mxCell id="EGbaX_ooP4YwNX-xeTMy-162" value="UV 2" style="shape=delay;whiteSpace=wrap;html=1;rotation=0;rounded=1;labelBackgroundColor=none;" parent="1" vertex="1">
          <mxGeometry x="310" y="980" width="40" height="27.5" as="geometry" />
        </mxCell>
        <mxCell id="EGbaX_ooP4YwNX-xeTMy-163" value="UV 3" style="shape=delay;whiteSpace=wrap;html=1;rotation=0;rounded=1;labelBackgroundColor=none;" parent="1" vertex="1">
          <mxGeometry x="150" y="980" width="40" height="27.5" as="geometry" />
        </mxCell>
        <mxCell id="EGbaX_ooP4YwNX-xeTMy-164" value="UV 0" style="shape=delay;whiteSpace=wrap;html=1;rotation=0;rounded=1;labelBackgroundColor=none;" parent="1" vertex="1">
          <mxGeometry x="150" y="850" width="40" height="27.5" as="geometry" />
        </mxCell>
        <mxCell id="EGbaX_ooP4YwNX-xeTMy-165" value="UV 1" style="shape=delay;whiteSpace=wrap;html=1;rotation=0;rounded=1;labelBackgroundColor=none;" parent="1" vertex="1">
          <mxGeometry x="310" y="850" width="40" height="27.5" as="geometry" />
        </mxCell>
        <mxCell id="EGbaX_ooP4YwNX-xeTMy-166" value="" style="endArrow=classic;html=1;rounded=1;exitX=0.5;exitY=0;exitDx=0;exitDy=0;entryX=0.5;entryY=1;entryDx=0;entryDy=0;labelBackgroundColor=none;fontColor=default;" parent="1" source="EGbaX_ooP4YwNX-xeTMy-164" edge="1">
          <mxGeometry width="50" height="50" relative="1" as="geometry">
            <mxPoint x="200" y="920" as="sourcePoint" />
            <mxPoint x="170" y="830" as="targetPoint" />
          </mxGeometry>
        </mxCell>
        <mxCell id="EGbaX_ooP4YwNX-xeTMy-167" value="" style="endArrow=classic;html=1;rounded=1;exitX=0.5;exitY=0;exitDx=0;exitDy=0;entryX=0.5;entryY=1;entryDx=0;entryDy=0;labelBackgroundColor=none;fontColor=default;" parent="1" edge="1">
          <mxGeometry width="50" height="50" relative="1" as="geometry">
            <mxPoint x="329.8" y="850" as="sourcePoint" />
            <mxPoint x="329.8" y="830" as="targetPoint" />
          </mxGeometry>
        </mxCell>
        <mxCell id="EGbaX_ooP4YwNX-xeTMy-168" value="" style="endArrow=classic;html=1;rounded=1;exitX=0.5;exitY=1;exitDx=0;exitDy=0;entryX=0.5;entryY=1;entryDx=0;entryDy=0;labelBackgroundColor=none;fontColor=default;" parent="1" source="EGbaX_ooP4YwNX-xeTMy-163" edge="1">
          <mxGeometry width="50" height="50" relative="1" as="geometry">
            <mxPoint x="169.8" y="1010" as="sourcePoint" />
            <mxPoint x="169.8" y="1030" as="targetPoint" />
          </mxGeometry>
        </mxCell>
        <mxCell id="EGbaX_ooP4YwNX-xeTMy-169" value="" style="endArrow=classic;html=1;rounded=1;exitX=0.493;exitY=1.017;exitDx=0;exitDy=0;entryX=0.5;entryY=1;entryDx=0;entryDy=0;exitPerimeter=0;labelBackgroundColor=none;fontColor=default;" parent="1" source="EGbaX_ooP4YwNX-xeTMy-162" edge="1">
          <mxGeometry width="50" height="50" relative="1" as="geometry">
            <mxPoint x="329.8" y="1010" as="sourcePoint" />
            <mxPoint x="329.8" y="1030" as="targetPoint" />
          </mxGeometry>
        </mxCell>
        <mxCell id="EGbaX_ooP4YwNX-xeTMy-170" value="UV 2" style="shape=delay;whiteSpace=wrap;html=1;rotation=0;rounded=1;labelBackgroundColor=none;" parent="1" vertex="1">
          <mxGeometry x="710" y="980" width="40" height="27.5" as="geometry" />
        </mxCell>
        <mxCell id="EGbaX_ooP4YwNX-xeTMy-171" value="UV 3" style="shape=delay;whiteSpace=wrap;html=1;rotation=0;rounded=1;labelBackgroundColor=none;" parent="1" vertex="1">
          <mxGeometry x="550" y="980" width="40" height="27.5" as="geometry" />
        </mxCell>
        <mxCell id="EGbaX_ooP4YwNX-xeTMy-172" value="UV 0" style="shape=delay;whiteSpace=wrap;html=1;rotation=0;rounded=1;labelBackgroundColor=none;" parent="1" vertex="1">
          <mxGeometry x="550" y="850" width="40" height="27.5" as="geometry" />
        </mxCell>
        <mxCell id="EGbaX_ooP4YwNX-xeTMy-173" value="UV 1" style="shape=delay;whiteSpace=wrap;html=1;rotation=0;rounded=1;labelBackgroundColor=none;" parent="1" vertex="1">
          <mxGeometry x="710" y="850" width="40" height="27.5" as="geometry" />
        </mxCell>
        <mxCell id="EGbaX_ooP4YwNX-xeTMy-174" value="" style="endArrow=classic;html=1;rounded=1;exitX=0.5;exitY=0;exitDx=0;exitDy=0;entryX=0.5;entryY=1;entryDx=0;entryDy=0;labelBackgroundColor=none;fontColor=default;" parent="1" source="EGbaX_ooP4YwNX-xeTMy-172" edge="1">
          <mxGeometry width="50" height="50" relative="1" as="geometry">
            <mxPoint x="600" y="920" as="sourcePoint" />
            <mxPoint x="570" y="830" as="targetPoint" />
          </mxGeometry>
        </mxCell>
        <mxCell id="EGbaX_ooP4YwNX-xeTMy-175" value="" style="endArrow=classic;html=1;rounded=1;exitX=0.5;exitY=0;exitDx=0;exitDy=0;entryX=0.5;entryY=1;entryDx=0;entryDy=0;labelBackgroundColor=none;fontColor=default;" parent="1" edge="1">
          <mxGeometry width="50" height="50" relative="1" as="geometry">
            <mxPoint x="729.8" y="850" as="sourcePoint" />
            <mxPoint x="729.8" y="830" as="targetPoint" />
          </mxGeometry>
        </mxCell>
        <mxCell id="EGbaX_ooP4YwNX-xeTMy-176" value="" style="endArrow=classic;html=1;rounded=1;exitX=0.5;exitY=1;exitDx=0;exitDy=0;entryX=0.5;entryY=1;entryDx=0;entryDy=0;labelBackgroundColor=none;fontColor=default;" parent="1" source="EGbaX_ooP4YwNX-xeTMy-171" edge="1">
          <mxGeometry width="50" height="50" relative="1" as="geometry">
            <mxPoint x="569.8" y="1010" as="sourcePoint" />
            <mxPoint x="569.8" y="1030" as="targetPoint" />
          </mxGeometry>
        </mxCell>
        <mxCell id="EGbaX_ooP4YwNX-xeTMy-177" value="" style="endArrow=classic;html=1;rounded=1;exitX=0.493;exitY=1.017;exitDx=0;exitDy=0;entryX=0.5;entryY=1;entryDx=0;entryDy=0;exitPerimeter=0;labelBackgroundColor=none;fontColor=default;" parent="1" source="EGbaX_ooP4YwNX-xeTMy-170" edge="1">
          <mxGeometry width="50" height="50" relative="1" as="geometry">
            <mxPoint x="729.8" y="1010" as="sourcePoint" />
            <mxPoint x="729.8" y="1030" as="targetPoint" />
          </mxGeometry>
        </mxCell>
        <mxCell id="EGbaX_ooP4YwNX-xeTMy-182" value="Room 1" style="text;html=1;align=center;verticalAlign=middle;resizable=0;points=[];autosize=1;rounded=1;labelBackgroundColor=none;" parent="1" vertex="1">
          <mxGeometry x="130" y="320" width="70" height="30" as="geometry" />
        </mxCell>
        <mxCell id="EGbaX_ooP4YwNX-xeTMy-183" value="Room 2" style="text;html=1;align=center;verticalAlign=middle;resizable=0;points=[];autosize=1;rounded=1;labelBackgroundColor=none;" parent="1" vertex="1">
          <mxGeometry x="530" y="320" width="70" height="30" as="geometry" />
        </mxCell>
        <mxCell id="EGbaX_ooP4YwNX-xeTMy-184" value="Room 3" style="text;html=1;align=center;verticalAlign=middle;resizable=0;points=[];autosize=1;rounded=1;labelBackgroundColor=none;" parent="1" vertex="1">
          <mxGeometry x="130" y="760" width="70" height="30" as="geometry" />
        </mxCell>
        <mxCell id="EGbaX_ooP4YwNX-xeTMy-185" value="Room 4" style="text;html=1;align=center;verticalAlign=middle;resizable=0;points=[];autosize=1;rounded=1;labelBackgroundColor=none;" parent="1" vertex="1">
          <mxGeometry x="530" y="760" width="70" height="30" as="geometry" />
        </mxCell>
        <mxCell id="EGbaX_ooP4YwNX-xeTMy-187" value="" style="verticalLabelPosition=bottom;verticalAlign=top;html=1;shape=mxgraph.basic.rect;fillColor2=none;strokeWidth=1;size=20;indent=5;rounded=1;labelBackgroundColor=none;" parent="1" vertex="1">
          <mxGeometry x="55" width="775" height="290" as="geometry" />
        </mxCell>
        <mxCell id="EGbaX_ooP4YwNX-xeTMy-188" value="&lt;h1 style=&quot;text-align: center; margin-top: 0px;&quot;&gt;&lt;span style=&quot;white-space-collapse: preserve;&quot;&gt;&lt;font style=&quot;font-size: 36px;&quot; face=&quot;Times New Roman&quot;&gt;Tissue Culture&lt;/font&gt;&lt;/span&gt;&lt;/h1&gt;&lt;div&gt;&lt;font size=&quot;3&quot; face=&quot;VIEh_mA2EldLbt_iTPcn&quot;&gt;This device is capable of collecting temperature and humidity data, current sensing, and timestamping the duration of UV light exposure in a specific room. It can communicate with a host system to store room data, including information from four planned rooms, as outlined in the required documentation.all communiction between host,slave, server is which the help of BLE(bluetooth low energy ) protocal .&lt;br&gt;&lt;br&gt;The sensor (THxx) is a slave device equipped with an integrated sensor and a port to detect UV light switching as needed.&amp;nbsp;&lt;/font&gt;&lt;/div&gt;&lt;div&gt;&lt;font size=&quot;3&quot; face=&quot;VIEh_mA2EldLbt_iTPcn&quot;&gt;The UVxx is the connection for the UV light.&amp;nbsp;&lt;/font&gt;&lt;/div&gt;&lt;div&gt;&lt;font size=&quot;3&quot; face=&quot;VIEh_mA2EldLbt_iTPcn&quot;&gt;The (data logger xx) acts as the host for the slave devices, collecting data from all slaves in a specific room.&amp;nbsp;&lt;/font&gt;&lt;/div&gt;&lt;div&gt;&lt;font size=&quot;3&quot; face=&quot;VIEh_mA2EldLbt_iTPcn&quot;&gt;The Raspberry server functions as a network device, gathering data from the host and sending it to the cloud for global access.&lt;/font&gt;&lt;/div&gt;" style="text;html=1;whiteSpace=wrap;overflow=hidden;rounded=1;labelBackgroundColor=none;" parent="1" vertex="1">
          <mxGeometry x="80" y="10" width="720" height="270" as="geometry" />
        </mxCell>
        <mxCell id="62_O6QMOKlsczxU7hUuw-10" style="edgeStyle=orthogonalEdgeStyle;rounded=0;orthogonalLoop=1;jettySize=auto;html=1;entryX=0.55;entryY=0.95;entryDx=0;entryDy=0;entryPerimeter=0;" edge="1" parent="1" source="EGbaX_ooP4YwNX-xeTMy-34" target="EGbaX_ooP4YwNX-xeTMy-33">
          <mxGeometry relative="1" as="geometry">
            <Array as="points">
              <mxPoint x="456" y="680" />
              <mxPoint x="456" y="680" />
            </Array>
          </mxGeometry>
        </mxCell>
        <mxCell id="62_O6QMOKlsczxU7hUuw-12" style="edgeStyle=orthogonalEdgeStyle;rounded=0;orthogonalLoop=1;jettySize=auto;html=1;exitX=1;exitY=0.5;exitDx=0;exitDy=0;entryX=-0.003;entryY=0.71;entryDx=0;entryDy=0;entryPerimeter=0;" edge="1" parent="1" source="EGbaX_ooP4YwNX-xeTMy-91" target="EGbaX_ooP4YwNX-xeTMy-34">
          <mxGeometry relative="1" as="geometry" />
        </mxCell>
        <mxCell id="62_O6QMOKlsczxU7hUuw-15" style="edgeStyle=orthogonalEdgeStyle;rounded=0;orthogonalLoop=1;jettySize=auto;html=1;exitX=0;exitY=0.5;exitDx=0;exitDy=0;entryX=0.997;entryY=0.591;entryDx=0;entryDy=0;entryPerimeter=0;" edge="1" parent="1" source="EGbaX_ooP4YwNX-xeTMy-97" target="EGbaX_ooP4YwNX-xeTMy-34">
          <mxGeometry relative="1" as="geometry" />
        </mxCell>
      </root>
    </mxGraphModel>
  </diagram>
</mxfile>
